<svg xmlns="http://www.w3.org/2000/svg" viewBox="0 0 32 32">
    <!-- <defs>
        <filter id="blur" x="-25%" y="-25%" width="220%" height="220%">
            <feGaussianBlur in="SourceGraphic" stdDeviation="3" />
        </filter>
    </defs> -->
    <title>key</title>

    <circle class="strokeBg" cx="16" cy="16" r="14.5"/>
    <circle class="stroke" cx="16" cy="16" r="14.5"/>

    <path class="bg" d="M19.7,6.6c-3.1,0-5.6,2.5-5.6,5.6c0,0.4,0,0.7,0.1,1l-6.8,6.8v3.4c0,0.6,0.5,1.1,1.1, 1.1h1.1v-1.1h2.2v-2.2h2.2v-2.2h2.2     l1.5-1.5c0.6,0.2,1.2,0.3,1.9,0.3c3.1,0,5.6-2.5,5.6-5.6S22.8,6.6,19.7,6.6z M21.4,12.2c-0.9,0-1.7-0.8-1.7-1.7s0.8-1.7,1.7-1.7 s1.7,0.8,1.7,1.7S22.3,12.2,21.4,12.2z"/>

    <path class="fill" d="M19.7,6.6c-3.1,0-5.6,2.5-5.6,5.6c0,0.4,0,0.7,0.1,1l-6.8,6.8v3.4c0,0.6,0.5,1.1,1.1, 1.1h1.1v-1.1h2.2v-2.2h2.2v-2.2h2.2     l1.5-1.5c0.6,0.2,1.2,0.3,1.9,0.3c3.1,0,5.6-2.5,5.6-5.6S22.8,6.6,19.7,6.6z M21.4,12.2c-0.9,0-1.7-0.8-1.7-1.7s0.8-1.7,1.7-1.7 s1.7,0.8,1.7,1.7S22.3,12.2,21.4,12.2z"/>
</svg>
