<svg xmlns="http://www.w3.org/2000/svg" viewBox="0 0 32 32">
    <title>Twitter</title>
    <path d="M10.06,29c12.08,0,18.68-10,18.68-18.68,0-.28,0-.57,0-.85A13.25,13.25,0,0,0,32,6.09a13,13,0,0,1-3.77,1A6.59,6.59,0,0,0,31.12,3.5,13.29,13.29,0,0,1,27,5.09a6.57,6.57,0,0,0-11.19,6A18.65,18.65,0,0,1,2.23,4.22a6.55,6.55,0,0,0,2,8.76,6.5,6.5,0,0,1-3-.82v.08a6.56,6.56,0,0,0,5.27,6.44,6.62,6.62,0,0,1-3,.11,6.57,6.57,0,0,0,6.14,4.56,13.2,13.2,0,0,1-8.16,2.82A13.61,13.61,0,0,1,0,26.07,18.61,18.61,0,0,0,10.06,29"/>
</svg>
