<svg version="1" xmlns="http://www.w3.org/2000/svg" width="346.667" height="346.667" viewBox="0 0 260.000000 260.000000"><path d="M44.6 70.2c.1 27.1.2 49.6.3 49.9 0 .3 1.2.4 2.6.1 4.2-.8 11.2 1.8 14.7 5.4 5.6 5.6 7.2 13.2 4.3 20.2-3.2 7.5-8.7 11.3-16.9 11.5l-5.1.1v47.7l4 1c2.2.6 4.7 1.2 5.5 1.4.8.2 4.6 1 8.3 1.9 7.9 1.8 9.7 2 9.7.7 0-.5.5-2.2 1.2-3.8.6-1.5 1.2-3 1.3-3.3.1-.3.4-1.2.8-2 .3-.8 3.3-9.4 6.7-19 3.4-9.6 8.2-22.9 10.5-29.5 2.4-6.6 8.3-23 13.1-36.5 4.8-13.5 9.1-24.9 9.6-25.5.6-.7 26.8-1.6 26.8-.9 0 0-3 8.3-6.6 18.5-8.4 23.4-15.1 42.2-21.3 59.6-2.7 7.6-7.6 21.4-11 30.8-3.3 9.3-6.1 17.5-6.1 18.1 0 .6 2.4 1.6 5.3 2.3 2.8.6 6.1 1.3 7.2 1.6 6.1 1.6 9.5 1.7 9.5.4 0-1.2 11.9-35.6 14-40.4.5-1.1 8-22 16.7-46.5l15.8-44.5h12.8c7.1 0 13 .3 13.3.6.3.6-11.3 34.3-21.1 60.9-1.3 3.6-4.6 12.8-7.3 20.5-15.9 44.2-20.3 56.8-20 57 .2.1 7.9 1.9 13.3 3.1.6.1 14.6 3.4 31.1 7.3 16.6 3.9 30.5 7.1 31 7.1.7 0 1.1-27.3.5-32.6 0-.6-2-1.1-4.4-1.1-5.8 0-12.1-3.5-15.4-8.5-2.3-3.4-2.8-5.3-2.8-10.4 0-5.4.4-6.7 3.1-10 4.7-5.9 7.5-7.5 14-8.1l5.9-.5v-56.4c0-31-.1-56.4-.2-56.4s-19-4.5-42-9.9c-41.7-9.9-67.5-16-70.3-16.6l-8-2c-3.6-.9-7.6-1.8-9-2.1-2.3-.5-7.8-1.8-33.5-7.9-5.8-1.4-10.8-2.5-11.2-2.5-.5 0-.8 22.2-.7 49.2z"/></svg>